/* XPM */
static char * soom16_xpm[] = {
"16 16 8 1",
" 	c None",
".	c #34AAF9",
"+	c #75CFFC",
"@	c #72EFFE",
"#	c #74CFFC",
"$	c #33AAF9",
"%	c #5CC1FB",
"&	c #75D1FC",
"                ",
"                ",
"                ",
"                ",
"                ",
"                ",
"  ..... ++ @ @@ ",
" .     #  @ @  @",
"   $%  & @  @  @",
" ... ++ @@     @",
"                ",
"                ",
"                ",
"                ",
"                ",
"                "};
