/* XPM */
static char * soom32_xpm[] = {
"32 32 8 1",
" 	c None",
".	c #34AAF9",
"+	c #33AAF9",
"@	c #76CFFC",
"#	c #75CFFC",
"$	c #72EFFE",
"%	c #72F0FE",
"&	c #76D0FC",
"                                ",
"                                ",
"                                ",
"                                ",
"                                ",
"                                ",
"                                ",
"                                ",
"                                ",
"                                ",
"                                ",
"                                ",
"    ........                    ",
"   ......++... @#### $$$$ $$$$$ ",
"  ..         + #    %$  $$$  $$ ",
"  ...... #    ##    $    $    $$",
"    .... &    ##   $$    $    $$",
"       .+@#  ## $  $$    $    $$",
" .......  ####  $$$$     $    $$",
"                                ",
"                                ",
"                                ",
"                                ",
"                                ",
"                                ",
"                                ",
"                                ",
"                                ",
"                                ",
"                                ",
"                                ",
"                                "};
