/* XPM */
static char * soom128_xpm[] = {
"128 128 4 1",
" 	c None",
".	c #34AAF9",
"+	c #75CFFC",
"@	c #72EFFE",
"                                                                                                                                ",
"                                                                                                                                ",
"                                                                                                                                ",
"                                                                                                                                ",
"                                                                                                                                ",
"                                                                                                                                ",
"                                                                                                                                ",
"                                                                                                                                ",
"                                                                                                                                ",
"                                                                                                                                ",
"                                                                                                                                ",
"                                                                                                                                ",
"                                                                                                                                ",
"                                                                                                                                ",
"                                                                                                                                ",
"                                                                                                                                ",
"                                                                                                                                ",
"                                                                                                                                ",
"                                                                                                                                ",
"                                                                                                                                ",
"                                                                                                                                ",
"                                                                                                                                ",
"                                                                                                                                ",
"                                                                                                                                ",
"                                                                                                                                ",
"                                                                                                                                ",
"                                                                                                                                ",
"                                                                                                                                ",
"                                                                                                                                ",
"                                                                                                                                ",
"                                                                                                                                ",
"                                                                                                                                ",
"                                                                                                                                ",
"                                                                                                                                ",
"                                                                                                                                ",
"                                                                                                                                ",
"                                                                                                                                ",
"                                                                                                                                ",
"                                                                                                                                ",
"                                                                                                                                ",
"                                                                                                                                ",
"                                                                                                                                ",
"                                                                                                                                ",
"                                                                                                                                ",
"                                                                                                                                ",
"                                                                                                                                ",
"                                                                                                                                ",
"                                                                                                                                ",
"                                                                                                                                ",
"                                                                                                                                ",
"              ........................................            ++++++++++           @@@@@@@@@            @@@@@@@@@@          ",
"            ............................................        +++++++++++++        @@@@@@@@@@@@@@       @@@@@@@@@@@@@@        ",
"           ...............................................    +++++++++++++++++     @@@@@@@@@@@@@@@@     @@@@@@@@@@@@@@@@       ",
"           ...............................................   +++++++++++++++++++  @@@@@@@@@@@@@@@@@@@   @@@@@@@@@@@@@@@@@@      ",
"          ................................................  +++++++++++++++++++  @@@@@@@@@@@@@@@@@@@@@ @@@@@@@@@@@@@@@@@@@@     ",
"          ...............................................  +++++++++++++++++++   @@@@@@@@@@@@@@@@@@@@@@@@@@@@@@@@@@@@@@@@@@@    ",
"         .......                                     ....  ++++++++       ++++  @@@@@@@@       @@@@@@@@@@@@@@        @@@@@@@@   ",
"         ......                      +++++++           .  +++++++           +   @@@@@@@          @@@@@@@@@@@          @@@@@@@   ",
"         ......                      ++++++               ++++++               @@@@@@@            @@@@@@@@@            @@@@@@@  ",
"         .......                    +++++++               ++++++               @@@@@@             @@@@@@@@              @@@@@@  ",
"          ..................        ++++++               ++++++                @@@@@@              @@@@@@@              @@@@@@  ",
"          ....................      ++++++               ++++++               @@@@@@               @@@@@@@              @@@@@@  ",
"           .....................    ++++++               ++++++               @@@@@@               @@@@@@                @@@@@@ ",
"            ....................    ++++++               ++++++               @@@@@@               @@@@@@                @@@@@@ ",
"             ....................   ++++++               ++++++               @@@@@@               @@@@@@                @@@@@@ ",
"              ....................  ++++++               ++++++               @@@@@@               @@@@@@                @@@@@@ ",
"                           .......  ++++++              ++++++               @@@@@@@               @@@@@@                @@@@@@ ",
"                            ......   ++++++             ++++++               @@@@@@                @@@@@@                @@@@@@ ",
"                            ......   +++++++           +++++++  @           @@@@@@@                @@@@@@                @@@@@@ ",
"                            ......   ++++++++         +++++++  @@@         @@@@@@@@                @@@@@@                @@@@@@ ",
"                           .......    +++++++++    ++++++++++  @@@@@@   @@@@@@@@@@                 @@@@@@                @@@@@@ ",
"  ................................     +++++++++++++++++++++  @@@@@@@@@@@@@@@@@@@                  @@@@@@                @@@@@@ ",
"  ...............................      ++++++++++++++++++++   @@@@@@@@@@@@@@@@@@                   @@@@@@                @@@@@@ ",
"  ..............................        ++++++++++++++++++    @@@@@@@@@@@@@@@@@                    @@@@@@                @@@@@@ ",
"  ..............................          +++++++++++++++      @@@@@@@@@@@@@@@                     @@@@@@                @@@@@@ ",
"  ............................             ++++++++++++          @@@@@@@@@@@                       @@@@@@                @@@@@@ ",
"   .........................                  ++++++               @@@@@@@                         @@@@@@                @@@@@  ",
"                                                                                                                                ",
"                                                                                                                                ",
"                                                                                                                                ",
"                                                                                                                                ",
"                                                                                                                                ",
"                                                                                                                                ",
"                                                                                                                                ",
"                                                                                                                                ",
"                                                                                                                                ",
"                                                                                                                                ",
"                                                                                                                                ",
"                                                                                                                                ",
"                                                                                                                                ",
"                                                                                                                                ",
"                                                                                                                                ",
"                                                                                                                                ",
"                                                                                                                                ",
"                                                                                                                                ",
"                                                                                                                                ",
"                                                                                                                                ",
"                                                                                                                                ",
"                                                                                                                                ",
"                                                                                                                                ",
"                                                                                                                                ",
"                                                                                                                                ",
"                                                                                                                                ",
"                                                                                                                                ",
"                                                                                                                                ",
"                                                                                                                                ",
"                                                                                                                                ",
"                                                                                                                                ",
"                                                                                                                                ",
"                                                                                                                                ",
"                                                                                                                                ",
"                                                                                                                                ",
"                                                                                                                                ",
"                                                                                                                                ",
"                                                                                                                                ",
"                                                                                                                                ",
"                                                                                                                                ",
"                                                                                                                                ",
"                                                                                                                                ",
"                                                                                                                                ",
"                                                                                                                                ",
"                                                                                                                                ",
"                                                                                                                                ",
"                                                                                                                                ",
"                                                                                                                                ",
"                                                                                                                                ",
"                                                                                                                                ",
"                                                                                                                                "};
