/* XPM */
static char * soom64_xpm[] = {
"64 64 4 1",
" 	c None",
".	c #34AAF9",
"+	c #75CFFC",
"@	c #72EFFE",
"                                                                ",
"                                                                ",
"                                                                ",
"                                                                ",
"                                                                ",
"                                                                ",
"                                                                ",
"                                                                ",
"                                                                ",
"                                                                ",
"                                                                ",
"                                                                ",
"                                                                ",
"                                                                ",
"                                                                ",
"                                                                ",
"                                                                ",
"                                                                ",
"                                                                ",
"                                                                ",
"                                                                ",
"                                                                ",
"                                                                ",
"                                                                ",
"        ..................        ++         @@         @       ",
"      ......................    +++++++   @@@@@@@    @@@@@@@    ",
"     ........................ ++++++++++ @@@@@@@@@@ @@@@@@@@@   ",
"     ....                ...  +++++ +++ @@@@@@@@@@@@@@@@ @@@@@  ",
"     ...           +++     . ++++     + @@@     @@@@@@     @@@@ ",
"     ...          +++        +++       @@@@      @@@@       @@@ ",
"     ..........   +++        +++       @@@        @@@       @@@ ",
"      ..........  +++        ++        @@@        @@@       @@@ ",
"       .......... +++       +++        @@@        @@@       @@@ ",
"              ... +++       +++       @@@@        @@@       @@@ ",
"              ...  ++++    ++++ @    @@@@         @@@       @@@ ",
" ................  +++++++++++ @@@@@@@@@@         @@@       @@@ ",
" ...............    +++++++++  @@@@@@@@@          @@@       @@@ ",
" ..............       ++++++    @@@@@@            @@@       @@@ ",
"                                                                ",
"                                                                ",
"                                                                ",
"                                                                ",
"                                                                ",
"                                                                ",
"                                                                ",
"                                                                ",
"                                                                ",
"                                                                ",
"                                                                ",
"                                                                ",
"                                                                ",
"                                                                ",
"                                                                ",
"                                                                ",
"                                                                ",
"                                                                ",
"                                                                ",
"                                                                ",
"                                                                ",
"                                                                ",
"                                                                ",
"                                                                ",
"                                                                ",
"                                                                "};
